<?xml version="1.0" encoding="iso-8859-1"?>
<!-- Generator: Adobe Illustrator 22.0.0, SVG Export Plug-In . SVG Version: 6.00 Build 0)  -->
<svg version="1.1" id="Layer_1" xmlns="http://www.w3.org/2000/svg" xmlns:xlink="http://www.w3.org/1999/xlink" x="0px" y="0px"
	 viewBox="0 0 250 60" style="enable-background:new 0 0 250 60;" xml:space="preserve">
<g id="Layer_5">
	<g style="enable-background:new    ;">
		<path style="fill:#8795AA;" d="M165.761,48.318v-5.011h1.435v5.011H165.761z"/>
		<path style="fill:#8795AA;" d="M171.662,48.318v-5.011h1.396l2.908,3.347v-3.347h1.333v5.011h-1.439l-2.864-3.268v3.268H171.662z"
			/>
		<path style="fill:#8795AA;" d="M183.714,48.318l-2.539-5.011h1.556l1.798,3.708l1.74-3.708h1.521l-2.545,5.011H183.714z"/>
		<path style="fill:#8795AA;" d="M191.608,48.318v-5.011h5.269v0.848h-3.834v1.11h3.567v0.845h-3.567v1.364h3.97v0.844H191.608z"/>
		<path style="fill:#8795AA;" d="M200.951,46.688l1.396-0.096c0.084,0.331,0.255,0.573,0.512,0.729s0.604,0.232,1.039,0.232
			c0.462,0,0.811-0.069,1.045-0.207s0.352-0.299,0.352-0.483c0-0.118-0.05-0.22-0.148-0.303s-0.271-0.155-0.516-0.217
			c-0.168-0.041-0.551-0.114-1.148-0.219c-0.77-0.135-1.309-0.3-1.619-0.495c-0.436-0.276-0.654-0.612-0.654-1.009
			c0-0.255,0.103-0.494,0.308-0.716c0.205-0.223,0.501-0.392,0.887-0.508c0.387-0.116,0.853-0.174,1.398-0.174
			c0.892,0,1.563,0.138,2.014,0.413s0.688,0.644,0.71,1.104l-1.435,0.044c-0.062-0.258-0.193-0.442-0.395-0.556
			c-0.202-0.112-0.505-0.169-0.909-0.169c-0.417,0-0.743,0.061-0.979,0.181c-0.152,0.078-0.228,0.182-0.228,0.312
			c0,0.118,0.07,0.22,0.213,0.304c0.181,0.107,0.62,0.219,1.318,0.336c0.697,0.115,1.214,0.236,1.548,0.36
			c0.335,0.124,0.597,0.294,0.785,0.509c0.189,0.216,0.283,0.481,0.283,0.799c0,0.287-0.112,0.556-0.339,0.807
			c-0.227,0.25-0.546,0.437-0.959,0.559c-0.414,0.122-0.93,0.183-1.547,0.183c-0.897,0-1.588-0.146-2.068-0.439
			C201.333,47.675,201.045,47.248,200.951,46.688z"/>
		<path style="fill:#8795AA;" d="M212.621,48.318v-4.163h-2.108v-0.848h5.646v0.848h-2.104v4.163H212.621z"/>
		<path style="fill:#8795AA;" d="M220.127,48.318v-5.011h1.435v5.011H220.127z"/>
		<path style="fill:#8795AA;" d="M226.029,48.318v-5.011h1.396l2.908,3.347v-3.347h1.333v5.011h-1.439l-2.864-3.268v3.268H226.029z"
			/>
		<path style="fill:#8795AA;" d="M239.574,46.477v-0.845h3.092v1.996c-0.301,0.205-0.736,0.386-1.307,0.542
			s-1.147,0.234-1.732,0.234c-0.743,0-1.391-0.11-1.943-0.33c-0.552-0.22-0.967-0.534-1.245-0.943
			c-0.277-0.409-0.417-0.854-0.417-1.335c0-0.521,0.155-0.985,0.466-1.392c0.31-0.405,0.764-0.716,1.361-0.933
			c0.456-0.166,1.022-0.249,1.701-0.249c0.882,0,1.571,0.13,2.066,0.391c0.496,0.261,0.815,0.622,0.958,1.082l-1.425,0.188
			c-0.101-0.246-0.289-0.439-0.565-0.582c-0.275-0.143-0.621-0.214-1.034-0.214c-0.627,0-1.125,0.14-1.495,0.421
			c-0.37,0.279-0.555,0.695-0.555,1.247c0,0.595,0.188,1.041,0.562,1.338c0.375,0.298,0.866,0.446,1.474,0.446
			c0.301,0,0.602-0.042,0.904-0.125s0.561-0.184,0.777-0.303v-0.635L239.574,46.477L239.574,46.477z"/>
	</g>
</g>
<g id="Layer_2_1_">
	<g>
		<circle style="fill:#E8701F;" cx="30.8" cy="29.7" r="29.5"/>
	</g>
</g>
<g id="Layer_1_1_">
	<g style="enable-background:new    ;">
		<path style="fill:#15366B;" d="M71.327,21.579h4.08v16.729h-4.08V21.579z"/>
		<path style="fill:#15366B;" d="M95.904,29.956c0,4.608-3.745,8.352-8.353,8.352h-7.104V21.579h7.104
			C92.16,21.579,95.904,25.347,95.904,29.956z M91.824,29.956c0-2.352-1.92-4.272-4.272-4.272h-3.024v8.544h3.024
			C89.904,34.228,91.824,32.308,91.824,29.956z"/>
		<path style="fill:#15366B;" d="M99.263,21.579h13.129v4.104h-9.048v2.232h7.081v4.08h-7.081v2.232h9.048v4.08H99.263V21.579z"/>
		<path style="fill:#15366B;" d="M128.039,36.292h-6.84l-0.792,2.064h-4.417l6.457-16.778h4.321l6.48,16.778h-4.416L128.039,36.292z
			 M126.479,32.212l-1.872-4.849l-1.849,4.849H126.479z"/>
		<path style="fill:#15366B;" d="M140.375,34.252h9.289v4.104h-13.369V21.579h4.08V34.252z"/>
		<path style="fill:#15366B;" d="M175.104,21.579v4.081h-5.28v12.697h-4.081V25.66h-5.28v-4.081
			C160.463,21.579,175.104,21.579,175.104,21.579z"/>
		<path style="fill:#15366B;" d="M191.231,31.204l2.88,7.153h-4.488l-2.496-6.384h-4.104v6.384h-4.08V21.579h9.576
			c2.856,0,5.209,2.329,5.209,5.185C193.728,28.635,192.72,30.292,191.231,31.204z M189.623,26.763c0-0.6-0.504-1.104-1.104-1.104
			h-5.496v2.232h5.496C189.119,27.892,189.623,27.387,189.623,26.763z"/>
		<path style="fill:#15366B;" d="M208.463,21.555h4.104v9.577c0,4.08-3.337,7.416-7.44,7.416c-4.081,0-7.417-3.336-7.417-7.416
			v-9.577h4.08v9.577c0,1.823,1.513,3.311,3.337,3.311c1.848,0,3.336-1.488,3.336-3.311V21.555z"/>
		<path style="fill:#15366B;" d="M221.279,26.356l0.071,0.168c0.312,0.552,0.864,0.743,1.417,0.936
			c1.271,0.408,2.616,0.696,3.864,1.225c0.504,0.216,1.008,0.479,1.464,0.792c0.648,0.456,1.224,1.032,1.584,1.752
			c0.672,1.296,0.624,2.904-0.048,4.224c-0.648,1.296-1.849,2.304-3.192,2.88s-2.856,0.72-4.296,0.624
			c-2.377-0.168-4.729-1.032-6.457-2.664l3.288-3.049c1.248,1.249,3.024,1.969,4.776,1.921c0.96-0.024,2.112-0.456,1.944-1.584
			c-0.023-0.097-0.048-0.169-0.072-0.217c-0.336-0.744-1.032-1.032-1.704-1.248c-1.056-0.359-2.16-0.576-3.216-0.936
			c-1.057-0.36-2.088-0.864-2.832-1.704c-0.792-0.841-1.2-1.992-1.2-3.145c0.023-1.152,0.479-2.305,1.271-3.145
			c0.841-0.96,2.04-1.536,3.289-1.872c1.536-0.432,3.168-0.456,4.728-0.144c1.608,0.312,3.145,1.008,4.44,2.04l-1.368,1.32
			c-0.6,0.6-1.248,1.199-1.872,1.8c-1.128-1.272-2.976-1.872-4.632-1.464C221.831,25.036,221.039,25.515,221.279,26.356z"/>
		<path style="fill:#15366B;" d="M247.92,21.579v4.081h-5.281v12.697h-4.08V25.66h-5.28v-4.081
			C233.279,21.579,247.92,21.579,247.92,21.579z"/>
	</g>
	<g>
		<g>
			<path style="fill:#FFFFFF;" d="M9.7,8.6h10.2v49.8H9.7V8.6z"/>
		</g>
		<g>
			<path style="fill:#FFFFFF;" d="M59.5,8.6v10.2H46.3v40.7H36.1V18.8H22.9V8.6H59.5L59.5,8.6z"/>
		</g>
	</g>
</g>
</svg>
